<svg xmlns="http://www.w3.org/2000/svg" width="40" height="40" viewBox="0 0 40 40">
    <g fill="none" fill-rule="nonzero">
        <path fill="#FFF" d="M36.875 21.25c0 4.069-2.994 7.432-6.9 8.019-.269 4.244-3.788 7.606-8.1 7.606a8.124 8.124 0 0 1-8.125-8.125c0-1.212.275-2.356.75-3.387a6.821 6.821 0 0 1-1.375-4.113c0-3.8 3.075-6.875 6.875-6.875 1.2 0 2.331.306 3.313.85a8.085 8.085 0 0 1 5.437-2.1 8.125 8.125 0 0 1 8.125 8.125zm-8.744 2.5a4.376 4.376 0 1 0-8.751.002 4.376 4.376 0 0 0 8.751-.002z"/>
        <path fill="#FFCE54" d="M23.756 19.375a4.376 4.376 0 1 1-.001 8.752 4.376 4.376 0 0 1 .001-8.752z"/>
        <path fill="#F6BB42" d="M23.756 19.427c-.283 0-.56.03-.827.08a4.373 4.373 0 0 1 3.325 4.243 4.374 4.374 0 0 1-3.55 4.294c.338.084.69.133 1.052.133a4.376 4.376 0 0 0 0-8.75z"/>
        <path fill="#965353" d="M7.494 11.25c.418.688.418 1.813 0 2.5-.419.688-.419 1.813 0 2.5.418.688.418 1.813 0 2.5-.419.688-.419 1.813 0 2.5.418.688.418 1.813 0 2.5-.419.688-.419 1.813 0 2.5.418.688.418 1.813 0 2.5h-2.5c.418-.688.418-1.812 0-2.5-.419-.688-.419-1.812 0-2.5.418-.688.418-1.812 0-2.5-.419-.688-.419-1.812 0-2.5.418-.688.418-1.812 0-2.5-.419-.688-.419-1.812 0-2.5.418-.688.418-1.812 0-2.5h2.5z"/>
        <path fill="#844747" d="M9.994 11.25c.418.688.418 1.813 0 2.5-.419.688-.419 1.813 0 2.5.418.688.418 1.813 0 2.5-.419.688-.419 1.813 0 2.5.418.688.418 1.813 0 2.5-.419.688-.419 1.813 0 2.5.418.688.418 1.813 0 2.5h-2.5c.418-.688.418-1.812 0-2.5-.419-.688-.419-1.812 0-2.5.418-.688.418-1.812 0-2.5-.419-.688-.419-1.812 0-2.5.418-.688.418-1.812 0-2.5-.419-.688-.419-1.812 0-2.5.418-.688.418-1.812 0-2.5h2.5z"/>
        <path fill="#965353" d="M28.75 4.994v2.5c-.688.418-1.813.418-2.5 0-.688-.419-1.813-.419-2.5 0-.688.418-1.813.418-2.5 0-.688-.419-1.813-.419-2.5 0-.688.418-1.813.418-2.5 0-.688-.419-1.813-.419-2.5 0-.688.418-1.813.418-2.5 0v-2.5c.688.418 1.813.418 2.5 0 .688-.419 1.813-.419 2.5 0 .688.418 1.813.418 2.5 0 .688-.419 1.813-.419 2.5 0 .688.418 1.813.418 2.5 0 .688-.419 1.813-.419 2.5 0 .688.418 1.813.418 2.5 0z"/>
        <path fill="#844747" d="M28.75 7.494v2.5c-.688.418-1.813.418-2.5 0-.688-.419-1.813-.419-2.5 0-.688.418-1.813.418-2.5 0-.688-.419-1.813-.419-2.5 0-.688.418-1.813.418-2.5 0-.688-.419-1.813-.419-2.5 0-.688.418-1.813.418-2.5 0v-2.5c.688.418 1.813.418 2.5 0 .688-.419 1.813-.419 2.5 0 .688.418 1.813.418 2.5 0 .688-.419 1.813-.419 2.5 0 .688.418 1.813.418 2.5 0 .688-.419 1.813-.419 2.5 0 .688.418 1.813.418 2.5 0z"/>
        <path fill="#E6E9ED" d="M9.994 11.25h-5c.418.688.418 1.813 0 2.5-.419.688-.419 1.813 0 2.5.418.688.418 1.813 0 2.5-.419.688-.419 1.813 0 2.5.418.688.418 1.813 0 2.5-.419.688-.419 1.813 0 2.5.418.688.418 1.813 0 2.5h5c.418-.688.418-1.812 0-2.5-.419-.688-.419-1.812 0-2.5.418-.688.418-1.812 0-2.5-.419-.688-.419-1.812 0-2.5.418-.688.418-1.812 0-2.5-.419-.688-.419-1.812 0-2.5.418-.688.418-1.812 0-2.5zm1.256-1.256c.688.418 1.813.418 2.5 0 .688-.419 1.813-.419 2.5 0 .688.418 1.813.418 2.5 0 .688-.419 1.813-.419 2.5 0 .688.418 1.813.418 2.5 0 .688-.419 1.813-.419 2.5 0 .688.418 1.813.418 2.5 0v-5c-.688.418-1.813.418-2.5 0-.688-.419-1.813-.419-2.5 0-.688.418-1.813.418-2.5 0-.688-.419-1.813-.419-2.5 0-.688.418-1.813.418-2.5 0-.688-.419-1.813-.419-2.5 0-.688.418-1.813.418-2.5 0v5zM20 .625C30.7.625 39.375 9.3 39.375 20S30.7 39.375 20 39.375.625 30.7.625 20 9.3.625 20 .625zm9.975 28.644c3.906-.587 6.9-3.95 6.9-8.019a8.125 8.125 0 0 0-8.125-8.125c-2.094 0-4 .8-5.438 2.1a6.816 6.816 0 0 0-3.312-.85 6.871 6.871 0 0 0-6.875 6.875c0 1.544.512 2.962 1.375 4.113a8.072 8.072 0 0 0-.75 3.387 8.124 8.124 0 0 0 8.125 8.125c4.313 0 7.831-3.362 8.1-7.606z"/>
        <path fill="#000" d="M20 40C8.972 40 0 31.028 0 20S8.972 0 20 0s20 8.972 20 20-8.972 20-20 20zm0-38.75C9.661 1.25 1.25 9.661 1.25 20S9.661 38.75 20 38.75 38.75 30.339 38.75 20 30.339 1.25 20 1.25z"/>
        <path fill="#000" d="M4.993 24.375a.626.626 0 0 1-.534-.95c.294-.484.294-1.367 0-1.851-.535-.883-.535-2.267 0-3.149.294-.484.294-1.367 0-1.852-.535-.882-.535-2.265 0-3.147.294-.485.294-1.368 0-1.852a.625.625 0 0 1 1.07-.648c.534.881.534 2.265 0 3.148-.295.484-.295 1.367 0 1.851.534.883.534 2.266 0 3.148-.295.485-.295 1.368 0 1.853.534.882.534 2.265 0 3.148a.624.624 0 0 1-.536.301z"/>
        <path fill="#000" d="M4.993 29.375a.626.626 0 0 1-.534-.95c.294-.484.294-1.367 0-1.851-.535-.883-.535-2.267 0-3.149a.626.626 0 0 1 1.07.648c-.295.485-.295 1.368 0 1.853.534.882.534 2.265 0 3.148a.624.624 0 0 1-.536.301zM7.492 29.375a.626.626 0 0 1-.534-.95c.295-.484.295-1.367 0-1.851-.535-.883-.535-2.267 0-3.149a.626.626 0 0 1 1.07.648c-.295.485-.295 1.368 0 1.853.534.882.534 2.265 0 3.148a.624.624 0 0 1-.536.301zM9.992 29.375a.626.626 0 0 1-.535-.95c.295-.484.295-1.367 0-1.851-.535-.883-.535-2.267 0-3.149a.626.626 0 0 1 1.07.648c-.294.485-.294 1.368 0 1.853.535.882.535 2.265 0 3.148a.624.624 0 0 1-.535.301z"/>
        <path fill="#000" d="M7.492 24.375a.626.626 0 0 1-.534-.95c.295-.484.295-1.367 0-1.851-.535-.883-.535-2.267 0-3.149.295-.484.295-1.367 0-1.852-.535-.882-.535-2.265 0-3.147.295-.485.295-1.368 0-1.852a.625.625 0 0 1 1.07-.648c.534.881.534 2.265 0 3.148-.295.484-.295 1.367 0 1.851.534.883.534 2.266 0 3.148-.295.485-.295 1.368 0 1.853.534.882.534 2.265 0 3.148a.624.624 0 0 1-.536.301zM9.992 24.375a.626.626 0 0 1-.535-.95c.295-.484.295-1.367 0-1.851-.535-.883-.535-2.267 0-3.149.295-.484.295-1.367 0-1.852-.535-.882-.535-2.265 0-3.147.295-.485.295-1.368 0-1.852a.625.625 0 0 1 1.07-.648c.534.881.534 2.265 0 3.148-.294.484-.294 1.367 0 1.851.535.883.535 2.266 0 3.148-.294.485-.294 1.368 0 1.853.535.882.535 2.265 0 3.148a.624.624 0 0 1-.535.301z"/>
        <path fill="#000" d="M9.992 11.875H4.994a.624.624 0 1 1 0-1.25h4.998a.624.624 0 1 1 0 1.25zM9.992 29.375H4.994a.624.624 0 1 1 0-1.25h4.998a.624.624 0 1 1 0 1.25zM17.5 5.93c-.566 0-1.133-.134-1.574-.402a.625.625 0 0 1 .648-1.07c.484.295 1.367.295 1.852 0 .882-.534 2.266-.534 3.148 0 .485.295 1.368.295 1.852 0 .883-.534 2.266-.534 3.148 0 .484.295 1.367.295 1.852 0a.626.626 0 0 1 .648 1.07c-.883.535-2.265.535-3.148 0-.485-.294-1.367-.295-1.852 0-.882.535-2.265.535-3.148 0-.484-.294-1.367-.294-1.852 0-.44.268-1.008.401-1.574.401z"/>
        <path fill="#000" d="M12.5 5.93c-.566 0-1.133-.134-1.574-.402a.625.625 0 0 1 .648-1.07c.484.295 1.367.295 1.852 0 .882-.534 2.266-.534 3.148 0a.625.625 0 0 1-.648 1.07c-.484-.294-1.367-.294-1.852 0-.44.268-1.008.401-1.574.401zM12.5 8.429c-.566 0-1.133-.134-1.574-.402a.625.625 0 0 1 .648-1.069c.484.295 1.367.295 1.852 0 .882-.534 2.266-.534 3.148 0a.625.625 0 0 1-.648 1.07c-.484-.295-1.367-.295-1.852 0-.44.267-1.008.4-1.574.4zM12.5 10.928c-.566 0-1.133-.134-1.574-.401a.625.625 0 0 1 .648-1.07c.484.295 1.367.295 1.852 0 .882-.534 2.266-.534 3.148 0a.625.625 0 0 1-.648 1.07c-.484-.294-1.367-.294-1.852 0-.44.267-1.008.401-1.574.401z"/>
        <path fill="#000" d="M17.5 8.429c-.566 0-1.133-.134-1.574-.402a.625.625 0 0 1 .648-1.069c.484.295 1.367.295 1.852 0 .882-.534 2.266-.534 3.148 0 .485.295 1.368.295 1.852 0 .883-.534 2.266-.534 3.148 0 .484.295 1.367.295 1.852 0a.625.625 0 0 1 .648 1.07c-.883.534-2.265.534-3.148 0-.485-.295-1.367-.296-1.852 0-.882.534-2.265.534-3.148 0-.484-.295-1.367-.295-1.852 0-.44.267-1.008.4-1.574.4zM17.5 10.928c-.566 0-1.133-.134-1.574-.401a.625.625 0 0 1 .648-1.07c.484.295 1.367.295 1.852 0 .882-.534 2.266-.534 3.148 0 .485.295 1.368.295 1.852 0 .883-.534 2.266-.534 3.148 0 .484.295 1.367.295 1.852 0a.625.625 0 0 1 .648 1.07c-.883.534-2.265.534-3.148 0-.485-.294-1.367-.294-1.852 0-.882.534-2.265.534-3.148 0-.484-.294-1.367-.294-1.852 0-.44.267-1.008.401-1.574.401z"/>
        <path fill="#000" d="M28.75 10.617a.624.624 0 0 1-.625-.625V4.994a.624.624 0 1 1 1.25 0v4.998c0 .346-.28.625-.625.625zM11.25 10.617a.624.624 0 0 1-.625-.625V4.994a.624.624 0 1 1 1.25 0v4.998c0 .346-.28.625-.625.625zM21.876 37.5c-4.825 0-8.75-3.925-8.75-8.75 0-1.141.22-2.254.658-3.315A7.42 7.42 0 0 1 12.5 21.25c0-4.136 3.365-7.5 7.5-7.5 1.115 0 2.22.25 3.223.728a8.718 8.718 0 0 1 5.529-1.98c4.825 0 8.75 3.926 8.75 8.75 0 4.12-2.954 7.713-6.948 8.554-.524 4.355-4.244 7.698-8.677 7.698zM19.999 15a6.257 6.257 0 0 0-6.25 6.25c0 1.352.432 2.644 1.25 3.736a.625.625 0 0 1 .067.636 7.442 7.442 0 0 0-.69 3.129c0 4.135 3.364 7.5 7.5 7.5 3.94 0 7.224-3.084 7.475-7.018a.625.625 0 0 1 .53-.579c3.632-.55 6.37-3.733 6.37-7.405 0-4.136-3.365-7.5-7.5-7.5-1.854 0-3.637.69-5.02 1.94a.626.626 0 0 1-.721.084A6.258 6.258 0 0 0 20 15z"/>
        <path fill="#000" d="M23.753 28.75c-2.757 0-5-2.243-5-5s2.243-5 5-5 5 2.243 5 5-2.243 5-5 5zm0-8.75a3.754 3.754 0 0 0-3.75 3.75 3.754 3.754 0 0 0 3.75 3.75 3.754 3.754 0 0 0 3.75-3.75 3.754 3.754 0 0 0-3.75-3.75z"/>
    </g>
</svg>
