<svg xmlns="http://www.w3.org/2000/svg" width="37" height="40" viewBox="0 0 37 40">
    <g fill="none" fill-rule="nonzero">
        <path fill="#FEE6CC" d="M30.736 17.678a5.637 5.637 0 0 0 0 11.276 5.638 5.638 0 0 0 0-11.276zm0 8.646a3.008 3.008 0 1 1 0 0z"/>
        <path fill="#FCCE99" d="M27.727 23.316a3.008 3.008 0 0 0 2.517 2.968c-.196.878-.5 1.716-.898 2.497a5.637 5.637 0 0 1 1.157-11.097v2.632a3.009 3.009 0 0 0-2.776 3z"/>
        <path fill="#FEE6CC" d="M29.048 16.856v6.96c0 5.91-4.734 10.795-10.644 10.837a10.707 10.707 0 0 1-3.577-.584 10.733 10.733 0 0 1-7.06-8.272 10.78 10.78 0 0 1-.162-1.864v-7.077c0-.428.346-.774.774-.774h19.895c.427 0 .774.346.774.774z"/>
        <g fill="#FCCE99">
            <path d="M15.265 33.391a4.5 4.5 0 0 1-.438.678 10.733 10.733 0 0 1-7.06-8.273c.264.097.517.224.75.38a3.629 3.629 0 0 1 1.301 1.579c.35-.055.7-.083 1.046-.083 2.43 0 4.395 1.348 4.778 3.278.163.814.032 1.658-.377 2.441z"/>
            <path d="M29.048 21.723v2.21c0 5.92-4.8 10.72-10.722 10.72-5.92 0-10.721-4.8-10.721-10.72v-2.21c0 5.921 4.8 10.721 10.721 10.721s10.722-4.8 10.722-10.721zM9.751 36.594h17.151v2.82H9.752z"/>
        </g>
        <path fill="#E2780E" d="M13.993 32.727c-.504.965-1.642 1.773-3.073 2.057-2.137.425-4.118-.478-4.424-2.017a.571.571 0 0 1-.006-.04c-.275-1.526 1.204-3.095 3.322-3.516 2.137-.424 4.117.478 4.423 2.018.102.509.007 1.022-.242 1.498z"/>
        <g fill="#A85000">
            <path d="M13.993 32.727c-.504.965-1.642 1.773-3.073 2.057-2.137.425-4.118-.478-4.424-2.017a.571.571 0 0 1-.006-.04h7.503z"/>
            <path d="M10.92 34.784c-2.137.425-4.117-.478-4.423-2.017a2.06 2.06 0 0 1-.029-.62c.63 1.175 2.363 1.803 4.213 1.435 1.85-.368 3.211-1.61 3.343-2.936.099.18.17.376.21.583.307 1.539-1.178 3.13-3.314 3.555z"/>
        </g>
        <path fill="#E2780E" d="M7.89 32.226a5.585 5.585 0 0 1-.378.502c-1.225 1.443-3 1.987-4.176 1.2-.423-.283-.716-.701-.88-1.2-.34-1.042-.109-2.433.71-3.658 1.21-1.812 3.249-2.574 4.553-1.701 1.305.87 1.381 3.046.17 4.857z"/>
        <g fill="#A85000">
            <path d="M7.512 32.727c-1.225 1.444-3 1.988-4.176 1.2-.423-.282-.716-.7-.88-1.2h5.056z"/>
            <path d="M7.89 32.227c-1.21 1.81-3.25 2.573-4.554 1.7a2.063 2.063 0 0 1-.458-.417c1.275.385 2.944-.397 3.992-1.964 1.048-1.568 1.132-3.41.288-4.44.198.058.387.146.561.263 1.305.872 1.381 3.047.17 4.858z"/>
        </g>
        <path fill="#FEE6CC" d="M.657 34.067v1.4L9.72 37.19h17.213l9.062-1.721v-1.401z"/>
        <path fill="#000" d="M35.995 33.48h-5.657a.586.586 0 1 0 0 1.172h5.071v.331l-8.531 1.62H9.775l-8.531-1.62v-.33h26.918a.586.586 0 1 0 0-1.172h-3.78a11.34 11.34 0 0 0 4.015-4.396 6.23 6.23 0 0 0 8.562-5.77 6.23 6.23 0 0 0-7.325-6.124v-.335c0-.75-.61-1.36-1.36-1.36h-2.772a.586.586 0 1 0 0 1.171h2.771c.104 0 .189.085.189.189v.996H8.19v-.996c0-.104.084-.189.188-.189h14.947a.586.586 0 1 0 0-1.172H8.379c-.75 0-1.36.61-1.36 1.36v7.077c0 .884.103 1.76.304 2.611-.953-.284-2.09-.06-3.127.649a.586.586 0 1 0 .662.967c.68-.465 1.393-.648 1.983-.53l-2.135 3.194a.586.586 0 0 0 .975.65l2.134-3.193c.222.328.343.758.349 1.26v.004c.008.774-.263 1.61-.761 2.357-.285.426-.621.79-1.002 1.086a3.694 3.694 0 0 1-.825.494H3.725a1.32 1.32 0 0 1-.064-.04c-.975-.652-1.037-2.337-.14-3.836a.586.586 0 0 0-1.006-.602c-.572.956-.85 2.021-.786 3 .037.554.182 1.054.42 1.477H.659a.586.586 0 0 0-.586.586v1.402c0 .281.2.523.477.576l8.616 1.636v1.734c0 .324.262.586.586.586H26.9a.586.586 0 0 0 .586-.586V37.68l8.618-1.636a.586.586 0 0 0 .476-.576v-1.402a.586.586 0 0 0-.586-.585zm-6.361-12.32c.339-.174.715-.267 1.102-.267a2.425 2.425 0 0 1 2.423 2.423 2.425 2.425 0 0 1-2.423 2.422c-.426 0-.836-.11-1.2-.319.064-.489.097-.985.097-1.487V21.16zm1.102-2.896a5.057 5.057 0 0 1 5.052 5.052 5.058 5.058 0 0 1-5.052 5.052c-.646 0-1.269-.12-1.858-.354.175-.455.32-.921.436-1.396a3.599 3.599 0 0 0 5.016-3.302 3.599 3.599 0 0 0-4.696-3.422v-1.45-.006-.052c.36-.08.728-.122 1.102-.122zm-2.274.76v4.908c0 2.707-1.055 5.253-2.968 7.168a10.2 10.2 0 0 1-3.76 2.38H14.92a9.916 9.916 0 0 1-.563-.218c.43-.676.594-1.428.452-2.145v-.003l-.001-.003c-.187-.932-.846-1.7-1.856-2.16-.946-.432-2.102-.544-3.256-.315-.105.021-.209.045-.312.071a10.126 10.126 0 0 1-1.194-4.775v-4.908h20.27zM8.377 32.552c.542-.811.87-1.721.943-2.603.196-.067.399-.122.606-.163 1.49-.296 2.928.152 3.501 1.006l-3.765.748a.586.586 0 1 0 .228 1.15l3.768-.75c-.075.386-.29.772-.634 1.127l-.003.003a3.53 3.53 0 0 1-.482.41H7.612c.281-.277.537-.587.765-.928zm17.939 6.276h-15.98v-1.053h15.98v1.053zM19.859 11.71a.586.586 0 0 0 .624.992 3.998 3.998 0 0 0 1.88-3.401 3.992 3.992 0 0 0-1.243-2.905 3.992 3.992 0 0 0 1.243-2.905c0-1.389-.703-2.66-1.88-3.4a.586.586 0 1 0-.624.991 2.832 2.832 0 0 1 1.333 2.409c0 .983-.499 1.884-1.333 2.409a.592.592 0 0 0 0 .992A2.832 2.832 0 0 1 21.192 9.3c0 .983-.498 1.884-1.333 2.409-.274.172.835-.525 0 0zM23.983 11.71a.586.586 0 0 0 .624.992 3.998 3.998 0 0 0 1.88-3.401c0-1.389-.703-2.66-1.88-3.4a.586.586 0 1 0-.624.991 2.832 2.832 0 0 1 1.332 2.409c0 .983-.498 1.884-1.332 2.409zM15.398 11.71a.586.586 0 0 0 .624.992 3.998 3.998 0 0 0 1.88-3.401c0-1.389-.703-2.66-1.88-3.401a.586.586 0 1 0-.624.992A2.832 2.832 0 0 1 16.73 9.3c0 .983-.498 1.884-1.332 2.409z"/>
    </g>
</svg>
