<svg xmlns="http://www.w3.org/2000/svg" width="41" height="35" viewBox="0 0 41 35">
    <g fill="none" fill-rule="nonzero">
        <circle cx="13.742" cy="21.516" r="12.821" fill="#FF8F00"/>
        <path fill="#FFE469" d="M39.605 12.6c-1.105.258-2.284-.11-2.652-1.437-.11-.331-.221-.663-.369-.995l-1.216.995.332-2.505a9.441 9.441 0 0 0-1.916-1.916l-2.652.884-1.216-2.947c-.258-.074-.516-.184-.774-.258-1.805-.479-3.242-1.768-3.979-3.463-7.184.774-12.379 7.258-11.605 14.442.774 7.184 7.22 12.416 14.442 11.642A13.094 13.094 0 0 0 39.679 14c0-.479-.037-.921-.074-1.4z"/>
        <g fill="#2F4343">
            <path d="M4.642 13.116a.61.61 0 0 0 .442-.184l.258-.258a.681.681 0 0 0 .037-.921.681.681 0 0 0-.921-.037l-.295.295a.645.645 0 0 0 0 .92c.148.111.332.185.48.185zM22.51 29.99c-4.678 4.826-12.378 4.936-17.205.257a12.147 12.147 0 0 1-1.658-15.51c.185-.295.11-.7-.184-.884-.295-.185-.7-.11-.884.184-4.163 6.19-2.468 14.552 3.684 18.679 5.416 3.61 12.637 2.837 17.132-1.842a.645.645 0 0 0 0-.921.602.602 0 0 0-.884.036zM40.232 12.526a.652.652 0 0 0-.7-.59h-.074c-.442.111-1.584.222-1.916-.994-.11-.368-.258-.737-.405-1.105-.148-.332-.516-.48-.848-.332-.036 0-.073.037-.11.074l.11-.884c.037-.184-.036-.332-.11-.48a10.556 10.556 0 0 0-2.026-2.026c-.185-.147-.406-.184-.59-.11l-2.1.7-.995-2.395a.718.718 0 0 0-.368-.368c-.258-.074-.516-.184-.774-.258A5.461 5.461 0 0 1 25.753.663a.618.618 0 0 0-.664-.368c-4.715.516-8.878 3.426-10.905 7.7-2.652-.074-5.231.59-7.479 1.99-.294.183-.405.589-.22.883.183.295.589.406.883.221a11.794 11.794 0 0 1 6.264-1.805c-2.58 7.148 1.105 15.032 8.252 17.61 7.148 2.58 15.032-1.105 17.61-8.252.553-1.51.811-3.095.811-4.679.037-.442 0-.958-.073-1.437zM26.563 26.49c-6.89 0-12.452-5.6-12.452-12.489 0-1.695.368-3.39 1.031-4.974 0-.037.037-.037.037-.073 1.732-3.906 5.342-6.669 9.579-7.258.847 1.658 2.395 2.873 4.163 3.39.147.036.332.11.479.147l1.105 2.652c.11.332.48.48.81.369l2.322-.774c.516.405.958.847 1.363 1.363l-.295 2.247c-.037.369.184.664.553.737a.545.545 0 0 0 .479-.147l.516-.442c0 .037.036.074.036.11.295 1.216 1.4 2.027 2.653 1.99h.074c0 .22.037.479.037.7-.037 6.852-5.6 12.416-12.49 12.452z"/>
            <path d="M18.347 14.332a1.4 1.4 0 1 0 0 2.798 1.4 1.4 0 0 0 0-2.798zM26.526 9.69c-.81 0-1.437.663-1.437 1.436 0 .81.664 1.437 1.437 1.437.774 0 1.437-.663 1.437-1.437 0-.773-.663-1.437-1.437-1.437zM26.49 21.037c-.811 0-1.437.626-1.437 1.437 0 .81.626 1.437 1.436 1.437.811 0 1.437-.627 1.437-1.437s-.626-1.437-1.437-1.437zM33.232 16.468c-.81 0-1.437.627-1.437 1.437s.626 1.437 1.437 1.437c.81 0 1.436-.626 1.436-1.437 0-.773-.626-1.437-1.436-1.437zM6.447 18.974c.59.479 1.474.368 1.953-.221.479-.59.368-1.474-.221-1.953-.59-.479-1.474-.368-1.953.221-.479.59-.368 1.474.221 1.953zM8.032 28.405c.073.737.7 1.29 1.436 1.29h.148c.773-.074 1.363-.81 1.29-1.584-.074-.774-.811-1.364-1.585-1.29-.774.074-1.4.774-1.29 1.584zM16.653 30.026c.258.221.59.332.884.332h.147c.774-.074 1.363-.81 1.29-1.584-.074-.774-.81-1.363-1.585-1.29-.773.074-1.363.81-1.289 1.584.074.369.258.737.553.958zM21.074 6.005a9.83 9.83 0 0 0-2.653 2.727c-.184.294-.11.7.184.884.295.184.7.11.884-.184a8.319 8.319 0 0 1 2.322-2.358c.294-.221.368-.59.147-.885a.588.588 0 0 0-.884-.184zM23.358 4.826c-.147.037-.295.11-.405.148a.684.684 0 0 0-.369.847.684.684 0 0 0 .848.368c.11-.036.22-.11.368-.147.332-.11.516-.479.442-.81-.074-.332-.479-.516-.81-.443-.037.037-.074.037-.074.037zM31.426 2.726a.67.67 0 0 0 .774.516c.074 0 .147-.037.221-.11l2.026-1.327c.295-.184.369-.59.185-.884a.733.733 0 0 0-.443-.295L31.832.258c-.369-.037-.664.184-.737.553v.22l.331 1.695zM36.4 7.221a.634.634 0 0 0 .847.332c.037 0 .037 0 .074-.037l1.326-.737c.295-.184.442-.553.258-.884a.86.86 0 0 0-.258-.258L36.474 4.42c-.295-.184-.7-.074-.885.258a.59.59 0 0 0-.036.553l.847 1.99z"/>
        </g>
    </g>
</svg>
