<svg xmlns="http://www.w3.org/2000/svg" width="40" height="24" viewBox="0 0 40 24">
    <g fill="none" fill-rule="nonzero">
        <path fill="#FF8F00" d="M3.164 14.618h33.781c1.2 0 2.182.982 2.182 2.182s-.982 2.182-2.182 2.182H3.164c-1.2 0-2.182-.982-2.182-2.182-.037-1.2.945-2.182 2.182-2.182z"/>
        <path fill="#FFCDBE" d="M.945 19.018h38.182v.327a3.74 3.74 0 0 1-3.745 3.746H4.727a3.74 3.74 0 0 1-3.745-3.746v-.327H.945z"/>
        <path fill="#C2E921" d="M37.6 12.364c1.636 2.909-2.545 5.854-5.2 3.927l-.073-.073c-2.327-1.636-5.382-1.927-8-.763-2.509 1.09-4.4 1.163-8.182-.146-4.909-1.709-6.472.691-10.181.727-3.71.037-4.219-2.072-3.637-3.672H37.6z"/>
        <path fill="#FFC639" d="M26.255 21.2l-4.4-8.764h8.763z"/>
        <path fill="#FFCDBE" d="M.945 8.582L32.036.836l7.091 7.746z"/>
        <path fill="#FFB89B" d="M.945 8.582h38.182v3.745H.945z"/>
        <g fill="#2F4343">
            <path d="M10.727 12.982h.328c.363 0 .654-.291.654-.655a.652.652 0 0 0-.654-.654h-.328a.652.652 0 0 0-.654.654c0 .364.29.655.654.655z"/>
            <path d="M39.782 12.364V8.545v-.072V8.4c0-.036 0-.036-.037-.073 0-.036 0-.036-.036-.072 0 0 0-.037-.036-.037 0-.036-.037-.036-.037-.073 0 0 0-.036-.036-.036L32.51.4c-.146-.182-.4-.255-.62-.182L20.91 2.945c-.328.073-.546.437-.474.764.073.327.437.546.764.473l10.618-2.655 5.855 6.4H6.145l12.037-2.982c.327-.072.545-.436.473-.763-.073-.327-.437-.546-.764-.473L.8 7.964a.623.623 0 0 0-.473.618v3.782c0 .363.291.654.655.654h.582a3.3 3.3 0 0 0 .109 1.455 2.86 2.86 0 0 0-.91 3.89c0 .037.037.073.037.073a.623.623 0 0 0-.473.619c0 2.581 1.964 4.69 4.4 4.69h30.655c2.436 0 4.4-2.109 4.4-4.69a.623.623 0 0 0-.473-.619 2.723 2.723 0 0 0 .473-1.563c0-.946-.473-1.818-1.273-2.364.11-.473.11-.982 0-1.49h.618c.364-.037.655-.328.655-.655zm-32.11.618c.364 0 .655-.291.655-.655a.652.652 0 0 0-.654-.654H1.6V9.2h36.91v2.473H13.89a.652.652 0 0 0-.654.654c0 .364.291.655.655.655h7.527l1.2 2.4c-1.745.473-3.454.254-6.254-.691-3.273-1.127-5.2-.546-7.055.036-1.09.4-2.218.618-3.345.655-1.455 0-2.473-.327-2.91-.982-.254-.436-.363-.945-.218-1.418h4.837zm18.583 6.8l-3.346-6.727h6.727l-3.381 6.727zm9.127 2.654H4.727c-1.527 0-2.8-1.2-3.054-2.8H21.89c.364 0 .654-.29.654-.654a.652.652 0 0 0-.654-.655H3.164c-.873 0-1.564-.69-1.564-1.563 0-.546.255-1.019.727-1.31C2.91 16.037 4 16.619 6 16.619a11.79 11.79 0 0 0 3.71-.727c1.817-.582 3.345-1.055 6.254-.073 1.963.691 3.49 1.018 4.872 1.018.8 0 1.6-.109 2.4-.363l2.473 4.945c.146.327.546.437.836.291.11-.073.219-.145.291-.29l.91-1.855h10.727c-.291 1.672-1.564 2.872-3.091 2.872zm1.09-7.018c-.945.837-2.508 1.2-3.708.327l-.073-.072a.6.6 0 0 0-.873.145.6.6 0 0 0 .146.873l.072.036c.655.473 1.455.764 2.291.728 1.091 0 2.182-.4 2.982-1.128.255-.218.473-.472.655-.727.654.545.727 1.527.145 2.182-.29.327-.727.545-1.164.545h-8.581l2.69-5.382H37.2c.473 1.273-.436 2.219-.727 2.473z"/>
        </g>
    </g>
</svg>
