<svg xmlns="http://www.w3.org/2000/svg" width="33" height="40" viewBox="0 0 33 40">
    <g fill="none" fill-rule="nonzero">
        <path fill="#82CD64" d="M15.023 3.57c3.877-3.878 10.164-3.878 14.042 0s3.877 10.164 0 14.042L15.023 3.57z"/>
        <path fill="#5DB33A" d="M29.065 3.57a9.88 9.88 0 0 0-4.57-2.6 9.905 9.905 0 0 1 2.645 1.89c3.672 3.674 3.864 9.506.58 13.407l1.345 1.345c3.877-3.878 3.877-10.164 0-14.042z"/>
        <path fill="#FFF2B2" d="M17.172 5.72a6.898 6.898 0 0 1 9.744 0 6.898 6.898 0 0 1 0 9.743l-9.744-9.744z"/>
        <path fill="#FFEA84" d="M26.916 5.72a6.857 6.857 0 0 0-4.139-1.975c.698.329 1.351.78 1.927 1.356 2.415 2.415 2.658 6.19.73 8.88l1.482 1.482a6.898 6.898 0 0 0 0-9.744z"/>
        <path fill="#DEF4F8" d="M21.567 38.005l3.002-28.521H.624l3.002 28.52c.084.803.76 1.411 1.567 1.411H20c.806 0 1.482-.608 1.567-1.41z"/>
        <path fill="#BCE8F1" d="M23.151 9.484l-3.002 28.52a1.575 1.575 0 0 1-1.567 1.411H20c.806 0 1.482-.608 1.567-1.41l3.002-28.521h-1.418z"/>
        <path fill="#FFE046" d="M3.54 12.792l1.464 15.336a4.726 4.726 0 0 0 4.705 4.277h5.775a4.726 4.726 0 0 0 4.705-4.277l1.465-15.336H3.539z"/>
        <path fill="#FFD508" d="M19.37 12.792l-1.465 15.336a4.726 4.726 0 0 1-4.704 4.277h2.283a4.726 4.726 0 0 0 4.705-4.277l1.465-15.336H19.37z"/>
        <path fill="#000" d="M29.479 3.157A10.534 10.534 0 0 0 19.182.472a.585.585 0 0 0 .317 1.126 9.361 9.361 0 0 1 9.152 2.386c3.504 3.504 3.637 9.123.401 12.788l-1.327-1.327c2.51-2.933 2.379-7.364-.396-10.139-2.775-2.775-7.206-2.905-10.14-.396l-1.327-1.327c.397-.35.821-.666 1.268-.943a.585.585 0 1 0-.616-.994c-.687.426-1.328.934-1.905 1.511a.585.585 0 0 0 0 .827l4.915 4.915H.624a.584.584 0 0 0-.582.646l.717 6.81a.585.585 0 0 0 1.163-.122l-.649-6.164h1.419l1.73 18.115a5.29 5.29 0 0 0 5.287 4.806h5.775a5.29 5.29 0 0 0 5.287-4.806l.534-5.595a.585.585 0 1 0-1.164-.112l-.535 5.596a4.125 4.125 0 0 1-4.122 3.747H9.709a4.125 4.125 0 0 1-4.123-3.747L4.183 13.377H21.01l-.606 6.348a.59.59 0 0 0 .505.635.59.59 0 0 0 .66-.524l.932-9.767h1.418l-2.934 27.874a.988.988 0 0 1-.985.887H5.193a.989.989 0 0 1-.986-.887l-1.993-18.94a.586.586 0 0 0-1.163.123l1.993 18.94A2.156 2.156 0 0 0 5.193 40H20a2.156 2.156 0 0 0 2.148-1.934l2.528-24.015 3.976 3.974a.584.584 0 0 0 .827 0c4.098-4.099 4.098-10.769 0-14.868-2.689-2.689 4.098 4.099 0 0zm-8.357 9.05H4.071l-.205-2.138h17.46l-.204 2.138zm3.881-3.114a.584.584 0 0 0-.434-.194h-3.39l-3.16-3.16a6.312 6.312 0 0 1 8.483.394c2.319 2.319 2.45 6.009.394 8.483l-2.062-2.062.316-3.009a.583.583 0 0 0-.147-.452z"/>
    </g>
</svg>
